<?xml version="1.0" standalone="no"?>
<!DOCTYPE svg PUBLIC "-//W3C//DTD SVG 20010904//EN"
 "http://www.w3.org/TR/2001/REC-SVG-20010904/DTD/svg10.dtd">
<svg version="1.0" xmlns="http://www.w3.org/2000/svg"
 width="256.000000pt" height="256.000000pt" viewBox="0 0 256.000000 256.000000"
 preserveAspectRatio="xMidYMid meet">
<metadata>
Created by potrace 1.14, written by Peter Selinger 2001-2017
</metadata>
<g transform="translate(0.000000,256.000000) scale(0.100000,-0.100000)"
fill="#000000" stroke="none">
<path d="M0 1755 c0 -689 2 -805 14 -805 35 0 119 83 142 140 23 58 56 120 64
120 18 0 60 98 59 137 0 21 -11 60 -24 88 -13 27 -22 51 -21 53 5 4 200 -79
211 -90 7 -6 -16 -34 -67 -81 -100 -94 -165 -200 -223 -362 -10 -27 -22 -54
-26 -59 -5 -5 -36 -8 -69 -7 l-60 2 0 -168 0 -168 49 -27 c55 -31 69 -61 40
-82 -23 -16 -16 -46 12 -46 21 0 24 -11 8 -27 -15 -15 -4 -43 15 -43 27 0 30
46 7 79 -19 27 -20 31 -6 45 28 28 84 7 77 -30 -3 -17 0 -24 11 -24 9 0 19 5
22 10 11 18 78 4 97 -20 10 -12 18 -17 18 -11 0 19 25 12 124 -34 54 -25 106
-45 117 -45 35 0 56 -18 83 -73 28 -59 86 -111 143 -131 27 -9 39 -20 44 -40
8 -30 27 -56 40 -56 11 0 -24 72 -45 92 -18 18 -33 108 -18 108 6 0 41 -11 79
-24 64 -23 89 -29 155 -41 15 -3 51 -18 80 -33 29 -16 72 -35 96 -42 33 -10
42 -18 42 -36 l0 -22 635 -1 635 -2 0 1281 0 1280 -1280 0 -1280 0 0 -805z
m1437 550 c84 -15 227 -65 321 -111 59 -30 193 -125 232 -165 113 -115 158
-178 248 -341 55 -100 102 -300 102 -432 l0 -79 -31 39 c-25 32 -39 40 -75 44
-24 3 -48 2 -53 -3 -5 -5 -11 1 -14 12 -3 12 -1 19 4 15 17 -10 9 36 -9 54
-10 10 -17 23 -15 29 2 5 -3 16 -11 22 -8 7 -12 19 -10 26 3 8 -4 24 -15 36
-12 13 -21 27 -21 32 0 4 -10 5 -21 2 -16 -5 -20 -3 -16 6 5 15 9 15 45 4 16
-4 22 -2 22 8 0 8 -7 17 -15 21 -9 3 -15 19 -15 41 0 33 -2 35 -20 25 -11 -6
-20 -21 -20 -33 0 -18 2 -19 10 -7 5 8 10 11 10 5 0 -17 -18 -40 -32 -41 -7 0
-23 -2 -36 -2 -21 -2 -22 -3 -8 -18 28 -27 20 -42 -12 -25 -15 8 -17 3 -20
-37 -3 -47 -32 -108 -32 -67 0 11 5 39 10 63 9 36 7 46 -10 70 -11 15 -21 38
-22 52 -3 21 1 24 20 22 12 -2 22 2 22 7 0 6 -7 11 -15 11 -8 0 -15 7 -15 15
0 13 9 16 35 15 10 -1 35 28 35 40 0 6 5 8 10 5 6 -3 10 1 10 10 0 9 -4 13
-10 10 -5 -3 -10 -1 -10 5 0 7 -8 9 -20 5 -13 -4 -22 -1 -26 10 -4 10 -13 13
-25 10 -13 -4 -19 -1 -19 9 0 9 -8 16 -17 17 -12 0 -13 2 -5 6 7 3 19 0 27 -7
15 -12 -17 56 -35 74 -15 15 -12 26 6 26 14 0 14 2 3 16 -7 9 -15 12 -17 6 -1
-5 -11 -8 -22 -5 -12 3 -22 -3 -31 -19 -7 -12 -10 -25 -8 -28 2 -3 -6 -6 -18
-8 -24 -3 -32 -35 -13 -47 14 -9 12 -25 -3 -25 -8 0 -14 -7 -14 -15 0 -8 4
-15 9 -15 5 0 19 -9 30 -20 16 -15 19 -23 11 -31 -8 -8 -13 -5 -18 10 -7 24
-45 29 -45 6 0 -8 -4 -15 -10 -15 -5 0 -10 4 -10 9 0 14 -65 8 -84 -8 -9 -8
-14 -16 -11 -19 3 -3 -4 -11 -14 -19 -18 -12 -19 -16 -5 -48 18 -45 19 -61 0
-46 -11 9 -14 3 -19 -31 -12 -89 52 -209 147 -273 20 -14 39 -25 42 -25 3 0
19 -9 34 -20 24 -17 27 -24 21 -48 -9 -31 -29 -31 -71 -3 -14 10 -74 42 -133
72 -60 30 -113 61 -118 71 -5 9 -5 59 1 122 6 58 11 150 12 203 1 161 -27 203
-183 269 -139 58 -316 104 -408 105 -46 1 -69 -4 -98 -22 -42 -26 -58 -39 -64
-55 -16 -40 -195 -337 -206 -341 -11 -4 -164 13 -282 33 -52 8 -22 28 47 31
182 7 241 40 312 178 19 37 42 70 50 72 8 3 29 22 45 43 40 51 133 96 205 100
82 4 82 4 119 -4 24 -6 31 -5 27 3 -4 6 -1 11 8 11 19 0 30 -17 14 -23 -7 -2
8 -7 34 -11 27 -4 52 -4 58 -1 5 3 19 8 31 10 17 3 19 2 9 -10 -14 -17 -4 -23
40 -27 20 -2 24 1 22 16 -3 15 1 18 18 13 17 -4 20 -2 15 14 -4 11 -2 19 4 19
6 0 11 -6 11 -12 0 -7 12 -19 27 -25 33 -16 46 -16 37 -2 -4 7 0 9 13 5 18 -6
19 -2 17 44 -3 46 6 64 21 40 11 -18 34 -11 30 10 -3 14 2 20 16 20 29 0 57
-34 52 -62 -3 -15 2 -31 11 -41 9 -8 16 -25 16 -36 0 -23 43 -56 60 -46 5 3
10 -1 10 -9 0 -9 -6 -13 -14 -10 -13 5 -33 -12 -24 -21 6 -7 62 -17 86 -16 16
1 26 -6 29 -18 3 -10 11 -18 19 -17 16 2 43 26 29 26 -4 0 2 9 15 20 13 11 20
20 16 20 -3 0 1 14 10 32 16 31 16 32 -10 55 -31 26 -48 30 -40 8 4 -9 0 -15
-10 -15 -9 0 -16 7 -16 15 0 9 -6 18 -14 21 -8 3 -12 12 -9 20 3 8 0 14 -7 14
-6 0 -8 5 -4 12 4 6 3 8 -3 5 -13 -8 -74 16 -76 29 -1 5 -12 9 -24 9 -12 -1
-20 1 -18 3 2 3 -7 19 -21 38 -21 26 -28 31 -39 21 -7 -7 -10 -16 -7 -22 3 -5
-4 -2 -15 8 -11 9 -25 17 -31 17 -7 0 -12 12 -12 26 0 24 -2 25 -17 13 -11
-10 -14 -10 -9 -1 4 7 1 12 -8 12 -9 0 -15 4 -13 9 2 11 -41 51 -57 52 -14 1
-57 6 -71 9 -29 6 -45 -2 -46 -22 -1 -17 -2 -19 -6 -5 -2 9 -9 18 -14 18 -5 1
-13 3 -19 4 -5 1 -19 3 -31 4 -12 1 -17 5 -13 12 5 9 -6 10 -42 4 -27 -4 -65
-8 -84 -10 -19 -2 -37 -4 -40 -5 -3 -1 -29 -3 -58 -3 -59 -2 -48 4 53 27 124
28 318 33 442 11z m-266 -57 c37 1 37 -18 0 -39 -37 -21 -104 -13 -77 10 8 7
13 17 10 22 -3 5 3 6 12 2 13 -5 15 -3 9 7 -6 9 -4 11 5 5 7 -4 26 -8 41 -7z
m243 -73 c-6 -16 -24 -21 -24 -7 0 11 11 22 21 22 5 0 6 -7 3 -15z m-247 -77
c-3 -8 -6 -5 -6 6 -1 11 2 17 5 13 3 -3 4 -12 1 -19z m466 -38 c3 -13 0 -20
-8 -20 -21 0 -45 11 -45 22 0 5 4 7 9 3 5 -3 12 -1 16 5 10 16 22 12 28 -10z
m92 -110 c3 -5 -1 -10 -9 -10 -9 0 -16 5 -16 10 0 6 4 10 9 10 6 0 13 -4 16
-10z m65 -79 c0 -5 -7 -11 -14 -14 -10 -4 -13 -1 -9 9 6 15 23 19 23 5z m-137
-340 c3 -11 -1 -22 -7 -24 -8 -3 -12 3 -10 16 4 35 9 37 17 8z m177 9 c0 -5
-5 -10 -11 -10 -5 0 -7 5 -4 10 3 6 8 10 11 10 2 0 4 -4 4 -10z m-1474 -20
c325 -57 972 -247 1219 -360 33 -15 71 -31 85 -35 30 -9 112 -56 107 -61 -1
-2 -24 3 -50 11 -26 8 -104 26 -175 40 -70 15 -138 34 -152 43 -61 40 -255
113 -460 173 -140 40 -391 98 -405 93 -11 -5 -260 88 -274 102 -8 7 44 4 105
-6z m1757 -96 c8 -8 -3 -34 -14 -34 -5 0 -9 9 -9 20 0 19 11 26 23 14z m-1380
-88 c5 -8 9 -7 15 1 7 10 12 10 26 0 13 -10 18 -29 19 -87 2 -84 -16 -134 -48
-136 -30 -2 -85 -25 -85 -35 0 -31 -107 28 -114 64 -3 12 -8 39 -11 60 -3 21
-10 35 -16 32 -13 -9 -11 19 3 33 14 14 42 16 33 2 -11 -17 21 -11 38 8 10 11
13 23 8 31 -6 8 -11 9 -15 3 -3 -6 -15 -10 -25 -9 -16 1 -17 5 -8 25 10 22 15
23 91 21 46 -1 84 -7 89 -13z m1417 -36 c0 -5 -4 -10 -10 -10 -5 0 -10 5 -10
10 0 6 5 10 10 10 6 0 10 -4 10 -10z m-661 -215 c31 -8 105 -24 166 -36 60
-13 104 -24 97 -27 -7 -2 -12 -10 -12 -18 0 -8 -6 -15 -12 -15 -72 -7 -109
-37 -107 -87 1 -26 35 -77 49 -74 6 1 8 -3 4 -9 -4 -7 0 -9 14 -5 15 5 28 -3
56 -35 38 -46 44 -69 22 -88 -12 -10 -15 -7 -21 17 -16 73 -101 113 -213 101
-77 -8 -116 -28 -146 -74 -22 -33 -41 -20 -50 34 -4 27 -13 41 -31 49 -22 10
-25 18 -25 67 0 30 5 55 10 55 6 0 10 10 10 22 0 26 47 78 70 78 9 0 25 -9 35
-20 25 -28 38 -5 19 32 -14 26 -12 48 3 48 4 0 32 -7 62 -15z m552 -118 c-8
-8 -11 -7 -11 4 0 20 13 34 18 19 3 -7 -1 -17 -7 -23z m-1332 -62 c61 -58 71
-64 71 -41 0 8 6 16 13 19 17 6 51 -19 43 -31 -3 -6 8 -15 26 -21 24 -9 29
-14 20 -23 -19 -19 -14 -26 13 -20 14 2 45 -5 70 -17 25 -11 57 -21 71 -21 15
0 65 -7 113 -16 47 -9 110 -21 139 -26 48 -9 52 -11 52 -38 0 -42 -26 -65
-121 -105 l-86 -36 -184 75 c-101 42 -197 83 -214 92 -32 17 -144 148 -157
184 -10 27 6 58 35 70 34 14 35 13 96 -45z m1456 -219 c18 -13 17 -14 -8 -42
l-27 -29 0 43 c0 45 6 50 35 28z m-734 -228 c17 -13 38 -36 46 -53 9 -16 29
-42 44 -56 16 -14 29 -30 29 -36 0 -6 16 -21 35 -34 19 -13 35 -27 35 -31 0
-5 9 -8 20 -8 11 0 20 -5 20 -11 0 -6 23 -36 51 -67 28 -31 58 -71 67 -89 8
-18 19 -30 24 -27 4 3 8 1 8 -5 0 -27 -26 -13 -128 72 -237 197 -267 223 -294
250 -29 29 -34 42 -19 52 5 3 12 19 16 35 4 17 9 30 11 30 3 0 19 -10 35 -22z"/>
<path d="M1486 2175 c4 -8 12 -15 20 -15 20 0 17 7 -6 20 -16 9 -18 8 -14 -5z"/>
<path d="M2006 1597 c-16 -12 -16 -13 3 -14 10 -1 22 5 25 13 7 17 -5 18 -28
1z"/>
<path d="M0 89 l0 -89 385 0 c228 0 385 4 385 9 0 18 -66 96 -99 118 -47 31
-98 29 -199 -8 -79 -29 -92 -31 -176 -26 -74 4 -110 13 -193 45 l-103 40 0
-89z"/>
</g>
</svg>
